<?xml version="1.0" encoding="utf-8"?>
<svg id="master-artboard" viewBox="0 0 981.4442749023438 981.4093017578125" version="1.1" xmlns="http://www.w3.org/2000/svg" x="0px" y="0px" style="enable-background:new 0 0 1400 980;" width="981.4442749023438px" height="981.4093017578125px"><rect id="ee-background" x="0" y="0" width="981.4442749023438" height="981.4093017578125" style="fill: white; fill-opacity: 0; pointer-events: none;"/><g transform="matrix(40.83333206176758, 0, 0, 40.83333206176758, 1.426788330078125, -0.00003409385681152344)"><path d="M 4 0 H 20 A 4 4 0 0 1 24 4 V 20 A 4 4 0 0 1 20 24 H 4 A 4 4 0 0 1 0 20 V 4 A 4 4 0 0 1 4 0 Z" fill="#000"/><g fill="none" stroke="#FFF" stroke-linecap="round" stroke-linejoin="round" stroke-width="2" transform="matrix(-0.177705243229866, -0.823778748512268, -0.823778748512268, 0.177705243229866, 27.35936103783042, 20.213213806278198)"><path d="M 17.688926696777344 11.163043174743652 L 18 22 C 20.209138999323173 22 22 20.209138999323173 22 18 L 22.00979995727539 6.712502956390381" transform="matrix(0.9695139527320861, -0.20282059907913205, 0.20282059907913205, 0.9695139527320861, -0.6021872306389611, 3.728841394864304)"/><path d="M 32.910274505615234 25.503578186035156" style="fill-opacity: 1; stroke: rgb(255, 255, 255); stroke-opacity: 1; stroke-width: 2; paint-order: stroke;"/><path style="fill-opacity: 1; stroke: rgb(255, 255, 255); stroke-opacity: 1; stroke-width: 2; paint-order: stroke;"/><path style="fill-opacity: 1; stroke: rgb(255, 255, 255); stroke-opacity: 1; stroke-width: 2; paint-order: stroke;"/><path d="M 14.257017850875854 28.58672022819519 C 14.257018089294434 28.586719512939453 13.244894027709961 28.058652877807617 13.167198181152344 27.77109146118164 C 13.048781394958496 27.332815170288086 13.309920310974121 26.11673927307129 13.240903854370117 25.564355850219727 C 13.126605033874512 24.64954376220703 11.482003211975098 26.21636962890625 11.077178001403809 25.70591402053833 C 10.67235279083252 25.195457458496094 11.143013000488281 24.153287887573242 10.713681697845459 23.439534187316895 C 10.284351348876953 22.72578239440918 8.589680671691895 24.249095916748047 8.072969675064087 23.768627166748047 C 7.556258201599121 23.288158416748047 7.195202827453613 20.99314022064209 7.195202827453613 21.99314022064209 M 18 6 L 18.01 6 M 6 18 L 6.01 18 M 20.83 8.83 C 23.008534984358313 6.651464952873939 22.01178598092031 2.931547250415433 19.035851794895255 2.134148134491029 C 17.65471597363501 1.7640739278717392 16.181061604874795 2.1589384260485858 15.169999999999998 3.17 L 3.169999999999998 15.17 C 0.9914649324570144 17.34853496394139 1.9882137931882027 21.06845270512587 4.964147948765554 21.86585193468265 C 6.345283861368907 22.235926222300563 7.565179926038105 21.789149382030576 8.576241569519041 20.77808769226074 L 20.83 8.83 Z" transform="matrix(0.9999991653643165, 0.002120228881747621, -0.002120228881747621, 0.9999991653643165, 0.08307585047841215, -0.07484008587165647)"/><path style="fill-opacity: 1; stroke: rgb(255, 255, 255); stroke-opacity: 1; stroke-width: 2; paint-order: stroke;"/><path d="M 12.297831535339355 38.944671630859375" style="fill-opacity: 1; stroke: rgb(255, 255, 255); stroke-opacity: 1; stroke-width: 2; paint-order: stroke;"/><path d="M 31.95768928527832 26.95291519165039" style="fill-opacity: 1; stroke: rgb(255, 255, 255); stroke-opacity: 1; stroke-width: 2; paint-order: stroke;"/></g></g></svg>